# xmcd
#
# Track frame offsets: 
#        150
#        16125
#        38637
#        62375
#        106965
#        123680
#        151345
#
# Disc length: 2366 seconds
#
# Revision: 3
# Processed by: cddbd v1.5.2PL0 Copyright (c) Steve Scherf et al.
# Submitted via: ExactAudioCopyFreeDBPlugin 1.0
#
DISCID=4c093c07
DTITLE=The Gun Club - Danse Kalinda Boom - Live in Pandora's Box
DYEAR=1985
DGENRE=Alternative Rock
TTITLE0=Eternally Is Here - live
TTITLE1=Bad America - live
TTITLE2=Stranger In Town - live
TTITLE3=Gila Monster, New Mexico - Preaching Blues - live
TTITLE4=Sleeping In Blood City - live
TTITLE5=Goodbye Johnny - live
TTITLE6=Given Up The Sun - live
EXTD=Live In Pandora's Box 3 September, 1983
EXTT0=
EXTT1=
EXTT2=
EXTT3=
EXTT4=
EXTT5=
EXTT6=
PLAYORDER=
